<svg width="28" height="32" viewBox="0 0 28 32" fill="none" xmlns="http://www.w3.org/2000/svg">
<g id="3586360_email_envelope_mail_send_icon 1">
<path id="Vector" d="M25.9733 24.3061C25.9864 24.2599 25.9954 24.2111 25.9954 24.1597V7.21872C25.9954 7.16706 25.9864 7.11795 25.973 7.0714C25.9711 7.06502 25.97 7.05864 25.9677 7.05227C25.9499 6.99774 25.9237 6.94863 25.8907 6.90558C25.8885 6.90271 25.8882 6.89921 25.886 6.89634C25.8846 6.89474 25.8829 6.8941 25.8815 6.89251C25.8464 6.84978 25.8048 6.81534 25.7582 6.78951C25.7546 6.7876 25.7518 6.78505 25.7482 6.78313C25.7041 6.76049 25.6561 6.74774 25.6056 6.74391C25.6006 6.74359 25.5958 6.74232 25.5908 6.74232C25.5861 6.742 25.5819 6.74072 25.5771 6.74072H2.36191C2.35717 6.74072 2.35271 6.742 2.34796 6.74232C2.3435 6.74264 2.33903 6.74359 2.33457 6.74391C2.28351 6.74774 2.23468 6.76081 2.19004 6.78377C2.18725 6.78505 2.18502 6.78728 2.18223 6.78855C2.1348 6.81438 2.09267 6.84946 2.05723 6.89283C2.05584 6.89442 2.05416 6.89474 2.05277 6.89634C2.05053 6.89889 2.05026 6.90239 2.04802 6.90526C2.0151 6.94831 1.98859 6.99774 1.97074 7.05227C1.96851 7.05864 1.96739 7.06502 1.96544 7.07172C1.95204 7.11827 1.94312 7.16738 1.94312 7.21904V24.1604C1.94312 24.2127 1.95232 24.2624 1.96599 24.3096C1.96795 24.316 1.96906 24.322 1.97102 24.3284C1.98915 24.3833 2.01594 24.4327 2.04914 24.4757C2.05109 24.4783 2.05165 24.4815 2.0536 24.484C2.05528 24.4863 2.05751 24.4875 2.05946 24.4898C2.07313 24.506 2.0882 24.5204 2.10383 24.5344C2.1108 24.5405 2.11694 24.5478 2.12419 24.5535C2.14261 24.5682 2.16242 24.58 2.18279 24.5908C2.18781 24.5934 2.19227 24.5975 2.1973 24.5998C2.2478 24.6243 2.30332 24.6384 2.36163 24.6384H25.5766C25.6349 24.6384 25.6904 24.6247 25.7409 24.5998C25.7487 24.596 25.756 24.5902 25.7635 24.5857C25.7808 24.5759 25.7981 24.5657 25.814 24.5532C25.8224 24.5465 25.8299 24.5379 25.838 24.5306C25.8522 24.5175 25.8662 24.5044 25.8785 24.4894C25.8807 24.4869 25.8832 24.485 25.8854 24.4824C25.8877 24.4796 25.8882 24.4757 25.8905 24.4729C25.9231 24.4301 25.9493 24.381 25.9672 24.3268C25.97 24.3198 25.9714 24.3131 25.9733 24.3061ZM2.78043 8.30354L9.82465 15.6572L2.78043 23.0695V8.30354ZM17.2182 15.2968C17.1892 15.3185 17.1585 15.3367 17.1342 15.3673C17.125 15.3788 17.1219 15.3938 17.1139 15.4059L13.9694 18.6884L3.44057 7.69704H24.4982L17.2182 15.2968ZM10.4452 16.3048L13.687 19.6891C13.7671 19.7726 13.8681 19.8144 13.9694 19.8144C14.0707 19.8144 14.1717 19.7726 14.2515 19.6891L17.4531 16.3469L24.4962 23.6817H3.43444L10.4452 16.3048ZM18.0739 15.6989L25.1583 8.30354V23.0771L18.0739 15.6989Z" fill="white"/>
</g>
</svg>
